<mxfile host="app.diagrams.net" modified="2021-05-18T19:29:59.801Z" agent="5.0 (Macintosh; Intel Mac OS X 10_15_7) AppleWebKit/537.36 (KHTML, like Gecko) Chrome/90.0.4430.212 Safari/537.36" etag="J5r9Lg7mByqUd4Q3PDYx" version="14.6.12" type="github">
  <diagram id="twZEPwuQxhSnXWAY4kN0" name="Singleton">
    <mxGraphModel dx="1298" dy="756" grid="1" gridSize="10" guides="1" tooltips="1" connect="1" arrows="1" fold="1" page="1" pageScale="1" pageWidth="1654" pageHeight="1169" math="0" shadow="0">
      <root>
        <mxCell id="0" />
        <mxCell id="1" parent="0" />
        <mxCell id="mmbaHhEmWscXW386a2SN-1" value="Singleton" style="swimlane;fontStyle=1;align=center;verticalAlign=top;childLayout=stackLayout;horizontal=1;startSize=26;horizontalStack=0;resizeParent=1;resizeParentMax=0;resizeLast=0;collapsible=1;marginBottom=0;" vertex="1" parent="1">
          <mxGeometry x="290" y="290" width="160" height="120" as="geometry" />
        </mxCell>
        <mxCell id="mmbaHhEmWscXW386a2SN-2" value="- instance: Singleton" style="text;strokeColor=none;fillColor=none;align=left;verticalAlign=top;spacingLeft=4;spacingRight=4;overflow=hidden;rotatable=0;points=[[0,0.5],[1,0.5]];portConstraint=eastwest;" vertex="1" parent="mmbaHhEmWscXW386a2SN-1">
          <mxGeometry y="26" width="160" height="34" as="geometry" />
        </mxCell>
        <mxCell id="mmbaHhEmWscXW386a2SN-3" value="" style="line;strokeWidth=1;fillColor=none;align=left;verticalAlign=middle;spacingTop=-1;spacingLeft=3;spacingRight=3;rotatable=0;labelPosition=right;points=[];portConstraint=eastwest;" vertex="1" parent="mmbaHhEmWscXW386a2SN-1">
          <mxGeometry y="60" width="160" height="8" as="geometry" />
        </mxCell>
        <mxCell id="mmbaHhEmWscXW386a2SN-4" value="# Singleton()&#xa;+ getInstance(): Singleton" style="text;strokeColor=none;fillColor=none;align=left;verticalAlign=top;spacingLeft=4;spacingRight=4;overflow=hidden;rotatable=0;points=[[0,0.5],[1,0.5]];portConstraint=eastwest;" vertex="1" parent="mmbaHhEmWscXW386a2SN-1">
          <mxGeometry y="68" width="160" height="52" as="geometry" />
        </mxCell>
        <mxCell id="mmbaHhEmWscXW386a2SN-5" value="" style="endArrow=open;endFill=0;endSize=12;html=1;exitX=0.45;exitY=1;exitDx=0;exitDy=0;exitPerimeter=0;entryX=1;entryY=0.5;entryDx=0;entryDy=0;edgeStyle=orthogonalEdgeStyle;rounded=0;" edge="1" parent="mmbaHhEmWscXW386a2SN-1" source="mmbaHhEmWscXW386a2SN-4" target="mmbaHhEmWscXW386a2SN-2">
          <mxGeometry width="160" relative="1" as="geometry">
            <mxPoint x="70" y="140" as="sourcePoint" />
            <mxPoint x="230" y="140" as="targetPoint" />
            <Array as="points">
              <mxPoint x="72" y="160" />
              <mxPoint x="200" y="160" />
              <mxPoint x="200" y="43" />
            </Array>
          </mxGeometry>
        </mxCell>
        <mxCell id="mmbaHhEmWscXW386a2SN-6" value="" style="endArrow=open;endFill=0;endSize=12;html=1;exitX=0.288;exitY=1;exitDx=0;exitDy=0;exitPerimeter=0;entryX=1;entryY=0.25;entryDx=0;entryDy=0;edgeStyle=orthogonalEdgeStyle;rounded=0;dashed=1;" edge="1" parent="mmbaHhEmWscXW386a2SN-1" source="mmbaHhEmWscXW386a2SN-4" target="mmbaHhEmWscXW386a2SN-1">
          <mxGeometry width="160" relative="1" as="geometry">
            <mxPoint x="82" y="104" as="sourcePoint" />
            <mxPoint x="170" y="53" as="targetPoint" />
            <Array as="points">
              <mxPoint x="46" y="190" />
              <mxPoint x="240" y="190" />
              <mxPoint x="240" y="30" />
            </Array>
          </mxGeometry>
        </mxCell>
        <mxCell id="mmbaHhEmWscXW386a2SN-7" value="Singleton factory" style="edgeLabel;html=1;align=center;verticalAlign=middle;resizable=0;points=[];" vertex="1" connectable="0" parent="mmbaHhEmWscXW386a2SN-6">
          <mxGeometry x="-0.3521" relative="1" as="geometry">
            <mxPoint as="offset" />
          </mxGeometry>
        </mxCell>
      </root>
    </mxGraphModel>
  </diagram>
</mxfile>
